ffmpeg version 4.3.1-2021-01-26-full_build-www.gyan.dev Copyright (c) 2000-2021 the FFmpeg developers
  built with gcc 10.2.0 (Rev6, Built by MSYS2 project)
  configuration: --enable-gpl --enable-version3 --enable-static --disable-w32threads --disable-autodetect --enable-fontconfig --enable-iconv --enable-gnutls --enable-libxml2 --enable-gmp --enable-lzma --enable-libsnappy --enable-zlib --enable-libsrt --enable-libssh --enable-libzmq --enable-avisynth --enable-libbluray --enable-libcaca --enable-sdl2 --enable-libdav1d --enable-libzvbi --enable-librav1e --enable-libwebp --enable-libx264 --enable-libx265 --enable-libxvid --enable-libaom --enable-libopenjpeg --enable-libvpx --enable-libass --enable-frei0r --enable-libfreetype --enable-libfribidi --enable-libvidstab --enable-libvmaf --enable-libzimg --enable-amf --enable-cuda-llvm --enable-cuvid --enable-ffnvcodec --enable-nvdec --enable-nvenc --enable-d3d11va --enable-dxva2 --enable-libmfx --enable-libcdio --enable-libgme --enable-libmodplug --enable-libopenmpt --enable-libopencore-amrwb --enable-libmp3lame --enable-libshine --enable-libtheora --enable-libtwolame --enable-libvo-amrwbenc --enable-libilbc --enable-libgsm --enable-libopencore-amrnb --enable-libopus --enable-libspeex --enable-libvorbis --enable-ladspa --enable-libbs2b --enable-libflite --enable-libmysofa --enable-librubberband --enable-libsoxr --enable-chromaprint
  libavutil      56. 51.100 / 56. 51.100
  libavcodec     58. 91.100 / 58. 91.100
  libavformat    58. 45.100 / 58. 45.100
  libavdevice    58. 10.100 / 58. 10.100
  libavfilter     7. 85.100 /  7. 85.100
  libswscale      5.  7.100 /  5.  7.100
  libswresample   3.  7.100 /  3.  7.100
  libpostproc    55.  7.100 / 55.  7.100
Input #0, image2pipe, from 'pipe:':
  Duration: N/A, bitrate: N/A
    Stream #0:0: Video: ppm, rgb24, 640x480, 30 fps, 30 tbr, 30 tbn, 30 tbc
Stream mapping:
  Stream #0:0 -> #0:0 (ppm (native) -> h264 (libx264))
[libx264 @ 00000291dc48b640] using cpu capabilities: MMX2 SSE2Fast SSSE3 SSE4.2 AVX FMA3 BMI2 AVX2
[libx264 @ 00000291dc48b640] profile High, level 3.0, 4:2:0, 8-bit
[libx264 @ 00000291dc48b640] 264 - core 161 r3040 35417dc - H.264/MPEG-4 AVC codec - Copyleft 2003-2021 - http://www.videolan.org/x264.html - options: cabac=1 ref=3 deblock=1:0:0 analyse=0x3:0x113 me=hex subme=7 psy=1 psy_rd=1.00:0.00 mixed_ref=1 me_range=16 chroma_me=1 trellis=1 8x8dct=1 cqm=0 deadzone=21,11 fast_pskip=1 chroma_qp_offset=-2 threads=6 lookahead_threads=1 sliced_threads=0 nr=0 decimate=1 interlaced=0 bluray_compat=0 constrained_intra=0 bframes=3 b_pyramid=2 b_adapt=1 b_bias=0 direct=1 weightb=1 open_gop=0 weightp=2 keyint=250 keyint_min=25 scenecut=40 intra_refresh=0 rc_lookahead=40 rc=abr mbtree=1 bitrate=400 ratetol=1.0 qcomp=0.60 qpmin=0 qpmax=69 qpstep=4 ip_ratio=1.40 aq=1:1.00
Output #0, mp4, to '.\mission_records\0efa3fe5-980a-4b34-b460-c93eac61b8b5\video.mp4':
  Metadata:
    encoder         : Lavf58.45.100
    Stream #0:0: Video: h264 (libx264) (avc1 / 0x31637661), yuv420p, 640x480, q=-1--1, 400 kb/s, 30 fps, 15360 tbn, 30 tbc
    Metadata:
      encoder         : Lavc58.91.100 libx264
    Side data:
      cpb: bitrate max/min/avg: 0/0/400000 buffer size: 0 vbv_delay: N/A
frame=   20 fps=0.0 q=0.0 size=       0kB time=00:00:00.00 bitrate=N/A speed=   0x    frame=   33 fps= 32 q=0.0 size=       0kB time=00:00:00.00 bitrate=N/A speed=   0x    frame=   46 fps= 29 q=0.0 size=       0kB time=00:00:00.00 bitrate=N/A speed=   0x    frame=   59 fps= 28 q=38.0 size=       0kB time=00:00:00.20 bitrate=   1.9kbits/s speed=0.0954x    frame=   72 fps= 28 q=35.0 size=       0kB time=00:00:00.63 bitrate=   0.6kbits/s speed=0.242x    frame=   85 fps= 27 q=32.0 size=       0kB time=00:00:01.06 bitrate=   0.4kbits/s speed=0.34x    frame=   98 fps= 27 q=30.0 size=       0kB time=00:00:01.50 bitrate=   0.3kbits/s speed=0.41x    frame=  111 fps= 27 q=28.0 size=       0kB time=00:00:01.93 bitrate=   0.2kbits/s speed=0.463x    frame=  124 fps= 26 q=27.0 size=       0kB time=00:00:02.36 bitrate=   0.2kbits/s speed=0.504x    frame=  137 fps= 26 q=25.0 size=       0kB time=00:00:02.80 bitrate=   0.1kbits/s speed=0.537x    frame=  150 fps= 26 q=23.0 size=       0kB time=00:00:03.23 bitrate=   0.1kbits/s speed=0.563x    frame=  163 fps= 26 q=23.0 size=       0kB time=00:00:03.66 bitrate=   0.1kbits/s speed=0.584x    frame=  176 fps= 26 q=24.0 size=       0kB time=00:00:04.10 bitrate=   0.1kbits/s speed=0.603x    frame=  189 fps= 26 q=23.0 size=       0kB time=00:00:04.53 bitrate=   0.1kbits/s speed=0.62x    frame=  202 fps= 26 q=21.0 size=       0kB time=00:00:04.96 bitrate=   0.1kbits/s speed=0.634x    frame=  215 fps= 26 q=21.0 size=       0kB time=00:00:05.40 bitrate=   0.1kbits/s speed=0.647x    frame=  227 fps= 26 q=20.0 size=       0kB time=00:00:05.80 bitrate=   0.1kbits/s speed=0.655x    frame=  240 fps= 26 q=19.0 size=       0kB time=00:00:06.23 bitrate=   0.1kbits/s speed=0.665x    frame=  253 fps= 26 q=18.0 size=       0kB time=00:00:06.66 bitrate=   0.1kbits/s speed=0.674x    frame=  266 fps= 26 q=18.0 size=       0kB time=00:00:07.10 bitrate=   0.1kbits/s speed=0.682x    frame=  279 fps= 26 q=18.0 size=       0kB time=00:00:07.53 bitrate=   0.1kbits/s speed=0.689x    frame=  292 fps= 25 q=17.0 size=       0kB time=00:00:07.96 bitrate=   0.0kbits/s speed=0.695x    frame=  305 fps= 25 q=17.0 size=     256kB time=00:00:08.40 bitrate= 249.7kbits/s speed=0.701x    frame=  318 fps= 25 q=17.0 size=     256kB time=00:00:08.83 bitrate= 237.5kbits/s speed=0.706x    frame=  331 fps= 25 q=17.0 size=     256kB time=00:00:09.26 bitrate= 226.4kbits/s speed=0.71x    frame=  344 fps= 25 q=16.0 size=     256kB time=00:00:09.70 bitrate= 216.2kbits/s speed=0.715x    frame=  357 fps= 25 q=16.0 size=     256kB time=00:00:10.13 bitrate= 207.0kbits/s speed=0.719x    frame=  370 fps= 25 q=15.0 size=     256kB time=00:00:10.56 bitrate= 198.5kbits/s speed=0.722x    frame=  374 fps= 25 q=-1.0 Lsize=     288kB time=00:00:12.36 bitrate= 190.6kbits/s speed=0.815x    
video:283kB audio:0kB subtitle:0kB other streams:0kB global headers:0kB muxing overhead: 1.803091%
[libx264 @ 00000291dc48b640] frame I:2     Avg QP:17.95  size: 36226
[libx264 @ 00000291dc48b640] frame P:104   Avg QP:11.47  size:  1659
[libx264 @ 00000291dc48b640] frame B:268   Avg QP:14.60  size:   163
[libx264 @ 00000291dc48b640] consecutive B-frames:  3.5%  1.1%  5.6% 89.8%
[libx264 @ 00000291dc48b640] mb I  I16..4: 17.7% 49.0% 33.3%
[libx264 @ 00000291dc48b640] mb P  I16..4:  3.6%  2.4%  0.7%  P16..4: 15.6%  1.3%  1.3%  0.0%  0.0%    skip:75.0%
[libx264 @ 00000291dc48b640] mb B  I16..4:  0.1%  0.1%  0.1%  B16..8:  5.2%  0.2%  0.1%  direct: 0.4%  skip:93.8%  L0:14.0% L1:85.1% BI: 0.9%
[libx264 @ 00000291dc48b640] final ratefactor: 13.99
[libx264 @ 00000291dc48b640] 8x8 transform intra:37.3% inter:50.4%
[libx264 @ 00000291dc48b640] coded y,uvDC,uvAC intra: 21.4% 26.1% 14.2% inter: 1.7% 2.1% 0.7%
[libx264 @ 00000291dc48b640] i16 v,h,dc,p: 34% 44%  7% 15%
[libx264 @ 00000291dc48b640] i8 v,h,dc,ddl,ddr,vr,hd,vl,hu:  9% 31% 49%  2%  2%  1%  2%  1%  3%
[libx264 @ 00000291dc48b640] i4 v,h,dc,ddl,ddr,vr,hd,vl,hu: 24% 45% 12%  3%  4%  2%  5%  2%  4%
[libx264 @ 00000291dc48b640] i8c dc,h,v,p: 66% 29%  4%  2%
[libx264 @ 00000291dc48b640] Weighted P-Frames: Y:0.0% UV:0.0%
[libx264 @ 00000291dc48b640] ref P L0: 83.7%  3.5%  9.9%  2.9%
[libx264 @ 00000291dc48b640] ref B L0: 76.5% 22.0%  1.5%
[libx264 @ 00000291dc48b640] ref B L1: 94.7%  5.3%
[libx264 @ 00000291dc48b640] kb/s:185.25
